<svg data-name="Cardeler logo" xmlns="http://www.w3.org/2000/svg" viewBox="0 0 841.89 115.98"><path d="M230.42 2.38H256l46.23 111.22h-27l-8.14-21.45h-47.75l-8.14 21.45h-27zm-3.3 69.11h32.18l-5.68-14.93c-3.82-10.17-7.31-19.54-10-28.44h-.8c-2.7 8.9-6.35 18.75-10 28.44zM355.87 2.38c34 0 56.56 20.66 56.56 55.61 0 35.27-22.56 55.61-56.56 55.61h-43.38V2.38zm-2.55 89.77c21 0 32.89-11 32.89-34.16 0-22.88-11.91-34.16-32.89-34.16h-15.09v68.32zM430.7 113.6V2.38h83.57v21.45h-57.83v22.08h54.81v21.45h-54.81v24.79h57.83v21.45H430.7zM560.82 2.38v89.77h54.49v21.45h-80.23V2.38h25.74zM629.13 113.6V2.38h83.57v21.45h-57.83v22.08h54.81v21.45h-54.81v24.79h57.83v21.45h-83.57zM841.89 113.6h-33.38l-37.86-39.72h-11.56v39.72h-25.73V2.38h56.08c23.67 0 40.67 15.1 40.67 35.75 0 22.08-16 34.09-28.53 35.11zm-52.45-60.54c7.15 0 14.46-4.6 14.46-14.61 0-9.85-7.31-14.62-14.46-14.62h-30.35v29.23zM104 58c0 19.22 14.62 36.06 35.59 36.06 10.32 0 19.86-5.71 26.37-12.55l16.21 16.21C171.56 109 156.15 116 138.67 116c-30.86 0-56.4-22.4-58.62-50.52L33.18 113.6H0s77.22-77.39 92.12-92S121 0 139.47 0a58.89 58.89 0 0142.74 18.27l-16.37 16.05c-6.19-6.52-15.25-12.4-26.37-12.4C119.93 21.92 104 38.77 104 58z"/></svg>