<svg xmlns="http://www.w3.org/2000/svg" version="1.0" viewBox="0 0 300 300"><path d="M28 42v14h28V28H28v14zm24 0v10H32V32h20v10z"/><path d="M36 42v6h12V36H36v6z"/><path d="M60 30v2h8v8h-2c-1.3 0-2-.7-2-2s-.7-2-2-2h-2v12h2c1.3 0 2 .7 2 2s-.7 2-2 2-2 .7-2 2 .7 2 2 2 2-.7 2-2 .7-2 2-2 2 .7 2 2 .7 2 2 2 2-.7 2-2 .7-2 2-2h2v12h-2c-1.3 0-2-.7-2-2v-2H60v2c0 1.3.7 2 2 2s2 .7 2 2-.7 2-2 2-2 .7-2 2-.7 2-2 2-2-.7-2-2v-2h-8v-2c0-1.3-.7-2-2-2s-2-.7-2-2v-2H28v2c0 1.3.7 2 2 2s2 .7 2 2 .7 2 2 2 2-.7 2-2 .7-2 2-2h2v8h-2c-1.3 0-2 .7-2 2v2h8v-8h2c1.3 0 2 .7 2 2v2h8v2c0 1.3-.7 2-2 2s-2 .7-2 2v2h-8v2c0 1.3-.7 2-2 2s-2-.7-2-2v-2h-8v-2c0-1.3-.7-2-2-2h-2v8h4v8h2c1.3 0 2-.7 2-2s.7-2 2-2 2 .7 2 2v2h8v8h-2c-1.3 0-2-.7-2-2s-.7-2-2-2-2 .7-2 2-.7 2-2 2-2 .7-2 2-.7 2-2 2h-2v8h-2c-1.3 0-2 .7-2 2s.7 2 2 2 2 .7 2 2-.7 2-2 2-2 .7-2 2 .7 2 2 2 2 .7 2 2-.7 2-2 2-2 .7-2 2 .7 2 2 2 2 .7 2 2-.7 2-2 2-2 .7-2 2 .7 2 2 2 2 .7 2 2-.7 2-2 2h-2v8h8v8h-2c-1.3 0-2-.7-2-2s-.7-2-2-2h-2v12h2c1.3 0 2 .7 2 2s-.7 2-2 2-2 .7-2 2v2h8v4h8v4h12v2c0 1.3-.7 2-2 2s-2 .7-2 2-.7 2-2 2-2 .7-2 2v2h-8v8h4v8h2c1.3 0 2-.7 2-2v-2h8v2c0 1.3-.7 2-2 2s-2 .7-2 2 .7 2 2 2 2 .7 2 2-.7 2-2 2-2 .7-2 2-.7 2-2 2h-2v-8h-2c-1.3 0-2 .7-2 2v2h-8v-2c0-1.3.7-2 2-2h2v-8h-8v-2c0-1.3.7-2 2-2s2-.7 2-2-.7-2-2-2-2 .7-2 2-.7 2-2 2h-2v8h4v8h-2c-1.3 0-2 .7-2 2v2h16v4h-8v4h-8v8h16v-2c0-1.3.7-2 2-2s2-.7 2-2v-2h16v4H52v4h8v4h8v-16h2c1.3 0 2 .7 2 2s.7 2 2 2 2-.7 2-2-.7-2-2-2-2-.7-2-2-.7-2-2-2h-2v-8h2c1.3 0 2-.7 2-2v-2h8v2c0 1.3-.7 2-2 2s-2 .7-2 2v2h12v8h-8v8h8v2c0 1.3-.7 2-2 2s-2 .7-2 2-.7 2-2 2-2-.7-2-2-.7-2-2-2-2 .7-2 2-.7 2-2 2h-2v12h-4v-8h-4v8h-4v16h8v-8h8v8h4v-8h4v8h2c1.3 0 2-.7 2-2s.7-2 2-2 2 .7 2 2v2h20v-8h2c1.3 0 2-.7 2-2s.7-2 2-2h2v8h-2c-1.3 0-2 .7-2 2v2h8v-8h4v8h8v-2c0-1.3.7-2 2-2s2-.7 2-2-.7-2-2-2-2-.7-2-2v-2h-8v-2c0-1.3-.7-2-2-2s-2-.7-2-2-.7-2-2-2-2 .7-2 2v2h-12v-2c0-1.3.7-2 2-2s2-.7 2-2 .7-2 2-2 2-.7 2-2v-2h8v4h12v-2c0-1.3.7-2 2-2h2v8h-8v4h8v2c0 1.3.7 2 2 2s2-.7 2-2 .7-2 2-2 2 .7 2 2 .7 2 2 2h2v8h-2c-1.3 0-2-.7-2-2s-.7-2-2-2h-2v8h12v-8h2c1.3 0 2 .7 2 2s.7 2 2 2 2 .7 2 2 .7 2 2 2h2v-12h2c1.3 0 2-.7 2-2v-2h-8v4h-12v-4h8v-2c0-1.3.7-2 2-2s2-.7 2-2 .7-2 2-2 2 .7 2 2v2h8v8h2c1.3 0 2 .7 2 2s.7 2 2 2h2v-8h2c1.3 0 2 .7 2 2s.7 2 2 2h2v-8h-8v-8h-2c-1.3 0-2-.7-2-2v-2h12v8h12v4h-8v2c0 1.3.7 2 2 2s2 .7 2 2 .7 2 2 2 2 .7 2 2-.7 2-2 2-2 .7-2 2v2h12v2c0 1.3.7 2 2 2s2-.7 2-2 .7-2 2-2 2-.7 2-2-.7-2-2-2h-2v-8h2c1.3 0 2 .7 2 2s.7 2 2 2h2v-8h12v2c0 1.3-.7 2-2 2h-2v8h2c1.3 0 2 .7 2 2v2h8v2c0 1.3.7 2 2 2s2-.7 2-2-.7-2-2-2-2-.7-2-2v-2h8v2c0 1.3.7 2 2 2s2 .7 2 2 .7 2 2 2 2-.7 2-2 .7-2 2-2 2 .7 2 2v2h8v-8h-2c-1.3 0-2-.7-2-2s.7-2 2-2 2-.7 2-2-.7-2-2-2-2-.7-2-2 .7-2 2-2h2v-12h-4v12h-4v8h-4v-16h4v-8h-2c-1.3 0-2-.7-2-2s-.7-2-2-2-2-.7-2-2 .7-2 2-2 2-.7 2-2-.7-2-2-2-2-.7-2-2v-2h-8v-2c0-1.3-.7-2-2-2s-2-.7-2-2 .7-2 2-2 2-.7 2-2-.7-2-2-2-2-.7-2-2v-2h16v-2c0-1.3.7-2 2-2s2 .7 2 2 .7 2 2 2 2 .7 2 2-.7 2-2 2-2 .7-2 2-.7 2-2 2-2-.7-2-2v-2h-8v8h8v2c0 1.3.7 2 2 2s2 .7 2 2 .7 2 2 2 2 .7 2 2 .7 2 2 2h2v-32h-8v-2c0-1.3-.7-2-2-2s-2-.7-2-2-.7-2-2-2-2 .7-2 2 .7 2 2 2 2 .7 2 2-.7 2-2 2-2 .7-2 2v2h-8v-2c0-1.3.7-2 2-2h2v-8h-4v8h-2c-1.3 0-2-.7-2-2s-.7-2-2-2-2-.7-2-2v-2h-12v-8h2c1.3 0 2-.7 2-2s.7-2 2-2h2v8h8v-2c0-1.3.7-2 2-2s2-.7 2-2 .7-2 2-2h2v8h2c1.3 0 2-.7 2-2s.7-2 2-2 2 .7 2 2 .7 2 2 2 2-.7 2-2-.7-2-2-2-2-.7-2-2v-2h12v-4h-12v-2c0-1.3.7-2 2-2s2-.7 2-2v-2h8v-2c0-1.3-.7-2-2-2s-2-.7-2-2 .7-2 2-2h2v-8h-4v-8h2c1.3 0 2-.7 2-2s-.7-2-2-2-2 .7-2 2-.7 2-2 2-2 .7-2 2-.7 2-2 2h-2v8h4v12h-4v-8h-4v-16h2c1.3 0 2-.7 2-2s-.7-2-2-2-2 .7-2 2-.7 2-2 2-2-.7-2-2-.7-2-2-2-2-.7-2-2-.7-2-2-2-2 .7-2 2-.7 2-2 2-2 .7-2 2-.7 2-2 2h-2v-8h2c1.3 0 2-.7 2-2v-2h12v2c0 1.3.7 2 2 2s2-.7 2-2v-2h16v-12h-4v8h-2c-1.3 0-2-.7-2-2s-.7-2-2-2-2 .7-2 2-.7 2-2 2h-2v-16h2c1.3 0 2 .7 2 2s.7 2 2 2h2V88h-8v2c0 1.3-.7 2-2 2h-2v8h4v8h-2c-1.3 0-2-.7-2-2s-.7-2-2-2-2 .7-2 2 .7 2 2 2h2v8h-2c-1.3 0-2-.7-2-2s-.7-2-2-2-2-.7-2-2v-2h-8v-8h8v-2c0-1.3.7-2 2-2h2v-8h2c1.3 0 2-.7 2-2s.7-2 2-2h2v-8h2c1.3 0 2 .7 2 2s.7 2 2 2h2v-8h4v8h4v-8h-2c-1.3 0-2-.7-2-2v-2h-8v2c0 1.3-.7 2-2 2h-2v-8h8v-4h-12v2c0 1.3-.7 2-2 2s-2 .7-2 2v2h-8v-2c0-1.3.7-2 2-2s2-.7 2-2v-2h-8v-2c0-1.3.7-2 2-2s2-.7 2-2-.7-2-2-2-2 .7-2 2-.7 2-2 2h-2v-8h2c1.3 0 2-.7 2-2s.7-2 2-2h2V28h-8v8h-4v-8h-8v2c0 1.3.7 2 2 2s2 .7 2 2v2h-8v-8h-4v8h-4v-8h-12v4h8v2c0 1.3-.7 2-2 2s-2 .7-2 2 .7 2 2 2 2 .7 2 2-.7 2-2 2-2 .7-2 2-.7 2-2 2h-2V36h-2c-1.3 0-2 .7-2 2s-.7 2-2 2h-2v-8h-4v12h2c1.3 0 2 .7 2 2v2h-12v-2c0-1.3-.7-2-2-2s-2 .7-2 2 .7 2 2 2 2 .7 2 2-.7 2-2 2-2 .7-2 2-.7 2-2 2h-2v-8h-4v-8h16v-4h-20v-4h16v-4h-20v12h-8v-2c0-1.3.7-2 2-2h2v-8h-12v2c0 1.3.7 2 2 2s2 .7 2 2v2h-8v-8h-4v16h-4V32h-2c-1.3 0-2-.7-2-2s-.7-2-2-2h-2v8h-4v-8h-8v2c0 1.3-.7 2-2 2s-2 .7-2 2v2H92v-8h-2c-1.3 0-2 .7-2 2s-.7 2-2 2-2-.7-2-2-.7-2-2-2-2 .7-2 2-.7 2-2 2-2-.7-2-2-.7-2-2-2-2 .7-2 2-.7 2-2 2-2-.7-2-2v-2h-8v2zm52 4c0 1.3.7 2 2 2h2v8h12v8h4v-8h2c1.3 0 2-.7 2-2v-2h12v4h-8v2c0 1.3-.7 2-2 2s-2 .7-2 2 .7 2 2 2h2v8h-2c-1.3 0-2 .7-2 2v2h8v12h2c1.3 0 2 .7 2 2s.7 2 2 2h2v8h8v-8h-4v-8h2c1.3 0 2-.7 2-2v-2h-8v2c0 1.3-.7 2-2 2s-2-.7-2-2 .7-2 2-2 2-.7 2-2v-2h8v-2c0-1.3.7-2 2-2s2-.7 2-2-.7-2-2-2h-2v-8h4v8h2c1.3 0 2 .7 2 2s-.7 2-2 2h-2v12h-2c-1.3 0-2 .7-2 2v2h8V64h2c1.3 0 2-.7 2-2s.7-2 2-2h2v-8h4v8h8v-2c0-1.3-.7-2-2-2s-2-.7-2-2 .7-2 2-2 2 .7 2 2 .7 2 2 2h2v-8h4v8h2c1.3 0 2-.7 2-2s.7-2 2-2h2v-8h4v8h2c1.3 0 2 .7 2 2s.7 2 2 2 2-.7 2-2 .7-2 2-2 2-.7 2-2v-2h-8v-4h8v2c0 1.3.7 2 2 2s2-.7 2-2 .7-2 2-2 2 .7 2 2-.7 2-2 2-2 .7-2 2 .7 2 2 2h2v8h2c1.3 0 2 .7 2 2s-.7 2-2 2-2 .7-2 2 .7 2 2 2 2 .7 2 2 .7 2 2 2 2 .7 2 2v2h-8v8h2c1.3 0 2-.7 2-2v-2h8v-2c0-1.3.7-2 2-2s2-.7 2-2 .7-2 2-2 2-.7 2-2 .7-2 2-2 2 .7 2 2-.7 2-2 2-2 .7-2 2 .7 2 2 2h2v8h-2c-1.3 0-2 .7-2 2s-.7 2-2 2h-2v8h-12v-2c0-1.3-.7-2-2-2s-2 .7-2 2-.7 2-2 2-2 .7-2 2 .7 2 2 2 2 .7 2 2-.7 2-2 2-2-.7-2-2v-2h-16v4h12v4h-8v2c0 1.3-.7 2-2 2s-2 .7-2 2 .7 2 2 2 2 .7 2 2-.7 2-2 2-2-.7-2-2v-2h-8v12h2c1.3 0 2 .7 2 2v2h8v4h8v-8h-8v-4h8v2c0 1.3.7 2 2 2h2v12h-4v8h-4v-8h-8v-2c0-1.3-.7-2-2-2h-2v8h-4v-8h-2c-1.3 0-2-.7-2-2s-.7-2-2-2h-2v-8h4v-8h4v-8h-8v2c0 1.3-.7 2-2 2s-2-.7-2-2-.7-2-2-2h-2v8h-8v4h8v8h-2c-1.3 0-2-.7-2-2s-.7-2-2-2h-2v12h-8v4h8v8h8v-2c0-1.3-.7-2-2-2h-2v-12h8v2c0 1.3.7 2 2 2h2v16h-16v-4h-12v2c0 1.3.7 2 2 2s2 .7 2 2-.7 2-2 2-2 .7-2 2-.7 2-2 2-2 .7-2 2 .7 2 2 2 2 .7 2 2-.7 2-2 2-2 .7-2 2v2h16v-4h-8v-8h2c1.3 0 2-.7 2-2s.7-2 2-2 2 .7 2 2v2h8v-4h8v4h-8v16h2c1.3 0 2 .7 2 2s-.7 2-2 2h-2v8h2c1.3 0 2-.7 2-2s.7-2 2-2h2v12h12v-2c0-1.3-.7-2-2-2h-2v-12h-8v-2c0-1.3.7-2 2-2h2v-8h2c1.3 0 2-.7 2-2s.7-2 2-2 2 .7 2 2 .7 2 2 2 2 .7 2 2v2h8v8h8v-2c0-1.3-.7-2-2-2s-2-.7-2-2 .7-2 2-2 2-.7 2-2v-2h-8v-2c0-1.3-.7-2-2-2h-2v-8h-2c-1.3 0-2 .7-2 2s-.7 2-2 2-2-.7-2-2 .7-2 2-2 2-.7 2-2-.7-2-2-2-2-.7-2-2v-2h8v4h12v4h8v-8h-2c-1.3 0-2-.7-2-2v-2h8v20h2c1.3 0 2 .7 2 2s.7 2 2 2h2v-8h2c1.3 0 2 .7 2 2v2h12v2c0 1.3-.7 2-2 2h-2v8h-2c-1.3 0-2-.7-2-2v-2h-8v8h-4v-12h-8v4h-8v2c0 1.3.7 2 2 2s2 .7 2 2-.7 2-2 2h-2v8h2c1.3 0 2 .7 2 2s.7 2 2 2h2v8h2c1.3 0 2-.7 2-2v-2h8v2c0 1.3-.7 2-2 2h-2v8h2c1.3 0 2 .7 2 2s-.7 2-2 2h-2v8h-8v4h-8v4h16v-2c0-1.3.7-2 2-2s2 .7 2 2 .7 2 2 2 2 .7 2 2-.7 2-2 2-2-.7-2-2-.7-2-2-2h-2v8h-4v8h-8v-12h-2c-1.3 0-2 .7-2 2v2h-8v8h2c1.3 0 2 .7 2 2s.7 2 2 2 2 .7 2 2-.7 2-2 2-2-.7-2-2-.7-2-2-2h-2v8h-12v-2c0-1.3.7-2 2-2s2-.7 2-2-.7-2-2-2-2-.7-2-2v-2h-8v-4h12v-4h-8v-2c0-1.3.7-2 2-2h2v-8h-2c-1.3 0-2 .7-2 2s-.7 2-2 2-2 .7-2 2-.7 2-2 2h-2v-8h2c1.3 0 2-.7 2-2v-2h-8v8h-4v8h-2c-1.3 0-2-.7-2-2s-.7-2-2-2-2 .7-2 2v2h-8v2c0 1.3-.7 2-2 2h-2v8h-4v-16h-16v-8h2c1.3 0 2 .7 2 2v2h12v4h8v-2c0-1.3-.7-2-2-2h-2v-8h12v-2c0-1.3-.7-2-2-2s-2-.7-2-2-.7-2-2-2-2 .7-2 2v2h-8v8h-8v-2c0-1.3-.7-2-2-2s-2-.7-2-2-.7-2-2-2-2 .7-2 2-.7 2-2 2-2 .7-2 2-.7 2-2 2-2-.7-2-2 .7-2 2-2h2v-8h12v8h2c1.3 0 2-.7 2-2s.7-2 2-2 2-.7 2-2-.7-2-2-2-2-.7-2-2v-2h8v-8h2c1.3 0 2 .7 2 2s.7 2 2 2h2v8h4v-8h4v8h-2c-1.3 0-2 .7-2 2v2h12v-4h12v-8h-16v-2c0-1.3-.7-2-2-2s-2-.7-2-2-.7-2-2-2-2-.7-2-2v-2h-12v4h-8v8h-4v-8h-8v2c0 1.3-.7 2-2 2s-2-.7-2-2-.7-2-2-2-2 .7-2 2-.7 2-2 2-2 .7-2 2v2h-8v8h2c1.3 0 2-.7 2-2s.7-2 2-2 2 .7 2 2-.7 2-2 2h-2v8h4v8h4v8h2c1.3 0 2 .7 2 2s-.7 2-2 2-2 .7-2 2-.7 2-2 2-2-.7-2-2 .7-2 2-2 2-.7 2-2-.7-2-2-2-2-.7-2-2v-2h-8v2c0 1.3.7 2 2 2h2v8h-2c-1.3 0-2-.7-2-2s-.7-2-2-2h-2v-8h4v-8h2c1.3 0 2-.7 2-2s-.7-2-2-2-2-.7-2-2v-2h-12v8h-8v-2c0-1.3-.7-2-2-2s-2 .7-2 2v2h-8v-4h8v-2c0-1.3-.7-2-2-2h-2v-8h16v-2c0-1.3.7-2 2-2s2 .7 2 2-.7 2-2 2-2 .7-2 2v2h8v-12h-12v2c0 1.3-.7 2-2 2s-2-.7-2-2 .7-2 2-2h2v-8h2c1.3 0 2-.7 2-2s-.7-2-2-2-2-.7-2-2v-2h8v2c0 1.3.7 2 2 2s2 .7 2 2v2h8v-2c0-1.3.7-2 2-2h2v-8h-2c-1.3 0-2 .7-2 2s-.7 2-2 2h-2v-8h-8v4H96v4h8v2c0 1.3-.7 2-2 2s-2 .7-2 2 .7 2 2 2 2 .7 2 2v2H92v2c0 1.3.7 2 2 2s2 .7 2 2v2h-8v8h2c1.3 0 2 .7 2 2v2h-8v-2c0-1.3-.7-2-2-2h-2v-8h-2c-1.3 0-2-.7-2-2s-.7-2-2-2-2-.7-2-2 .7-2 2-2 2 .7 2 2 .7 2 2 2h2v-8h16v-4H80v-8h-4v12h-8v12h2c1.3 0 2 .7 2 2s-.7 2-2 2-2-.7-2-2-.7-2-2-2-2 .7-2 2-.7 2-2 2-2-.7-2-2v-2h-8v-2c0-1.3-.7-2-2-2s-2-.7-2-2 .7-2 2-2 2-.7 2-2 .7-2 2-2 2-.7 2-2 .7-2 2-2 2 .7 2 2v2h8v-2c0-1.3-.7-2-2-2s-2-.7-2-2-.7-2-2-2-2-.7-2-2v-2H48v-8h-8v2c0 1.3-.7 2-2 2s-2-.7-2-2 .7-2 2-2 2-.7 2-2v-2h-8v-2c0-1.3.7-2 2-2s2-.7 2-2 .7-2 2-2 2-.7 2-2 .7-2 2-2 2 .7 2 2 .7 2 2 2h2v12h2c1.3 0 2-.7 2-2s.7-2 2-2 2-.7 2-2-.7-2-2-2-2-.7-2-2 .7-2 2-2 2 .7 2 2 .7 2 2 2 2-.7 2-2 .7-2 2-2h2v-20H48v-8h2c1.3 0 2-.7 2-2v-2h-8v-2c0-1.3-.7-2-2-2h-2v8h4v12h-2c-1.3 0-2 .7-2 2s.7 2 2 2 2 .7 2 2v2h-8v-8h2c1.3 0 2-.7 2-2v-2h-8v-4h8v-4h-8v-2c0-1.3.7-2 2-2s2-.7 2-2-.7-2-2-2-2-.7-2-2v-2h12v-2c0-1.3-.7-2-2-2s-2-.7-2-2-.7-2-2-2-2 .7-2 2-.7 2-2 2-2-.7-2-2 .7-2 2-2 2-.7 2-2v-2h8v4h12v-4h-8v-4h12v-2c0-1.3.7-2 2-2s2-.7 2-2v-2h-8v2c0 1.3-.7 2-2 2s-2-.7-2-2 .7-2 2-2 2-.7 2-2v-2h-8v-2c0-1.3-.7-2-2-2s-2-.7-2-2 .7-2 2-2 2 .7 2 2v2h12v-4h-8v-2c0-1.3.7-2 2-2s2-.7 2-2 .7-2 2-2 2-.7 2-2 .7-2 2-2 2-.7 2-2 .7-2 2-2 2-.7 2-2 .7-2 2-2 2 .7 2 2 .7 2 2 2 2-.7 2-2 .7-2 2-2h2v8h-2c-1.3 0-2 .7-2 2s.7 2 2 2 2 .7 2 2-.7 2-2 2h-2v8h-8v2c0 1.3-.7 2-2 2s-2 .7-2 2v2h8v-4h8v-8h4v-8h12v-4h-8v-2c0-1.3-.7-2-2-2s-2-.7-2-2v-2h8v-8h-2c-1.3 0-2-.7-2-2s-.7-2-2-2h-2v8h-4v-8h-2c-1.3 0-2-.7-2-2v-2H64v-4h12v-2c0-1.3-.7-2-2-2s-2-.7-2-2v-2h8v12h8v-2c0-1.3-.7-2-2-2s-2-.7-2-2 .7-2 2-2 2-.7 2-2 .7-2 2-2 2 .7 2 2 .7 2 2 2h2v8h-4v8h2c1.3 0 2-.7 2-2s.7-2 2-2 2 .7 2 2-.7 2-2 2h-2v8h2c1.3 0 2 .7 2 2s.7 2 2 2h2v-8h8v-8h4v8h4V48h-2c-1.3 0-2-.7-2-2v-2h-8V32h2c1.3 0 2 .7 2 2zm48 8c0 1.3-.7 2-2 2s-2-.7-2-2 .7-2 2-2 2 .7 2 2zm76 0c0 1.3-.7 2-2 2s-2-.7-2-2 .7-2 2-2 2 .7 2 2zm-132 4c0 1.3-.7 2-2 2s-2-.7-2-2 .7-2 2-2 2 .7 2 2zm52 8v6h-12V48h12v6zm-48 0c0 1.3-.7 2-2 2s-2-.7-2-2 .7-2 2-2 2 .7 2 2zm-64 48c0 1.3-.7 2-2 2s-2-.7-2-2 .7-2 2-2 2 .7 2 2zm184 8c0 1.3.7 2 2 2s2-.7 2-2 .7-2 2-2 2 .7 2 2-.7 2-2 2-2 .7-2 2 .7 2 2 2 2 .7 2 2-.7 2-2 2-2 .7-2 2v2h8v2c0 1.3-.7 2-2 2s-2 .7-2 2-.7 2-2 2-2-.7-2-2-.7-2-2-2-2-.7-2-2-.7-2-2-2-2-.7-2-2-.7-2-2-2-2-.7-2-2-.7-2-2-2-2-.7-2-2v-2h8v-2c0-1.3.7-2 2-2s2 .7 2 2zm-36 8c0 1.3-.7 2-2 2s-2-.7-2-2 .7-2 2-2 2 .7 2 2zm56 2v4h-2c-1.3 0-2-.7-2-2s-.7-2-2-2-2-.7-2-2v-2h8v4zm-16 18c0 1.3-.7 2-2 2s-2-.7-2-2 .7-2 2-2 2 .7 2 2zM60 150v6H48v-12h12v6zm192 0v6h-12v-12h12v6zm-52 2v4h-4v-8h4v4zm68-2c0 1.3-.7 2-2 2s-2-.7-2-2 .7-2 2-2 2 .7 2 2zm-76 16c0 1.3-.7 2-2 2s-2-.7-2-2 .7-2 2-2 2 .7 2 2zm-52 40c0 1.3-.7 2-2 2s-2-.7-2-2 .7-2 2-2 2 .7 2 2zm-76 8v2h-8v-4h8v2zm204 2v4h-4v-8h4v4zm-204 6c0 1.3.7 2 2 2s2 .7 2 2v2H52v-4h8v-2c0-1.3.7-2 2-2s2 .7 2 2zm56 2v4h-4v-8h4v4zm136 2c0 1.3-.7 2-2 2s-2-.7-2-2 .7-2 2-2 2 .7 2 2zm-160 4c0 1.3.7 2 2 2s2-.7 2-2v-2h12v8h2c1.3 0 2 .7 2 2s-.7 2-2 2-2 .7-2 2v2h-8v-8h-4v12h4v8H92v-8h2c1.3 0 2-.7 2-2v-2h-8v-2c0-1.3.7-2 2-2s2-.7 2-2-.7-2-2-2h-2v-8h8v2zm-52 4c0 1.3-.7 2-2 2s-2-.7-2-2 .7-2 2-2 2 .7 2 2zm212 0c0 1.3-.7 2-2 2s-2-.7-2-2 .7-2 2-2 2 .7 2 2zm-100 12v6h-12v-12h12v6zm96 0v6h-12v-12h12v6zm-172 0c0 1.3-.7 2-2 2s-2-.7-2-2 .7-2 2-2 2 .7 2 2zm92 0c0 1.3-.7 2-2 2s-2-.7-2-2 .7-2 2-2 2 .7 2 2zm8 0c0 1.3-.7 2-2 2s-2-.7-2-2 .7-2 2-2 2 .7 2 2zm-92 4c0 1.3-.7 2-2 2s-2-.7-2-2 .7-2 2-2 2 .7 2 2zm96 4c0 1.3-.7 2-2 2s-2-.7-2-2 .7-2 2-2 2 .7 2 2zm-116 4c0 1.3-.7 2-2 2s-2-.7-2-2 .7-2 2-2 2 .7 2 2zm8 0c0 1.3.7 2 2 2s2 .7 2 2-.7 2-2 2-2-.7-2-2-.7-2-2-2-2-.7-2-2 .7-2 2-2 2 .7 2 2zm168 2v4h-2c-1.3 0-2-.7-2-2s-.7-2-2-2-2-.7-2-2v-2h8v4zm8-2c0 1.3-.7 2-2 2s-2-.7-2-2 .7-2 2-2 2 .7 2 2zm-140 4c0 1.3-.7 2-2 2s-2 .7-2 2-.7 2-2 2-2-.7-2-2-.7-2-2-2-2 .7-2 2-.7 2-2 2-2-.7-2-2v-2H84v-4h28v2zm148 2v4h-4v-8h4v4zm-124 2c0 1.3-.7 2-2 2s-2-.7-2-2 .7-2 2-2 2 .7 2 2z"/><path d="M88 42c0 1.3.7 2 2 2s2-.7 2-2-.7-2-2-2-2 .7-2 2zm36 12c0 1.3.7 2 2 2h2v8h-2c-1.3 0-2-.7-2-2s-.7-2-2-2-2 .7-2 2-.7 2-2 2-2-.7-2-2-.7-2-2-2h-2v8h-8v2c0 1.3-.7 2-2 2s-2-.7-2-2-.7-2-2-2-2-.7-2-2-.7-2-2-2-2 .7-2 2 .7 2 2 2 2 .7 2 2 .7 2 2 2h2v8h-4v12h12v8h12v2c0 1.3-.7 2-2 2h-2v8h4v12h4v12h-2c-1.3 0-2-.7-2-2s-.7-2-2-2h-2v12h2c1.3 0 2 .7 2 2s-.7 2-2 2h-2v8h-4v-8h-2c-1.3 0-2 .7-2 2s-.7 2-2 2-2-.7-2-2-.7-2-2-2-2-.7-2-2-.7-2-2-2-2-.7-2-2-.7-2-2-2-2 .7-2 2-.7 2-2 2h-2v-8h12v2c0 1.3.7 2 2 2s2 .7 2 2v2h8v-12h-2c-1.3 0-2-.7-2-2s-.7-2-2-2-2-.7-2-2-.7-2-2-2h-2v-16h12v-4h-8v-8h-8v2c0 1.3-.7 2-2 2s-2-.7-2-2-.7-2-2-2h-2v12h-4v8h-8v-2c0-1.3.7-2 2-2s2-.7 2-2-.7-2-2-2h-2v-8h2c1.3 0 2 .7 2 2s.7 2 2 2h2V92h4v-8h2c1.3 0 2-.7 2-2s-.7-2-2-2-2 .7-2 2-.7 2-2 2h-2v8h-2c-1.3 0-2 .7-2 2s-.7 2-2 2-2 .7-2 2v2H64v4h8v4H60v2c0 1.3-.7 2-2 2s-2 .7-2 2-.7 2-2 2-2 .7-2 2 .7 2 2 2 2 .7 2 2-.7 2-2 2-2 .7-2 2 .7 2 2 2 2-.7 2-2 .7-2 2-2h2v12h2c1.3 0 2 .7 2 2s.7 2 2 2h2v20h-2c-1.3 0-2 .7-2 2s-.7 2-2 2-2 .7-2 2-.7 2-2 2-2 .7-2 2-.7 2-2 2-2 .7-2 2v2h12v4h8v-12h4v8h4v-8h12v4h-8v2c0 1.3.7 2 2 2s2 .7 2 2v2h8v-4h12v-2c0-1.3-.7-2-2-2s-2-.7-2-2-.7-2-2-2-2 .7-2 2-.7 2-2 2-2-.7-2-2-.7-2-2-2h-2v-8h2c1.3 0 2 .7 2 2s.7 2 2 2 2-.7 2-2 .7-2 2-2 2 .7 2 2 .7 2 2 2 2 .7 2 2 .7 2 2 2h2v8h4v-20h4v-8h2c1.3 0 2 .7 2 2s.7 2 2 2 2 .7 2 2 .7 2 2 2h2v-8h2c1.3 0 2 .7 2 2s.7 2 2 2h2v8h2c1.3 0 2 .7 2 2s-.7 2-2 2-2 .7-2 2 .7 2 2 2 2-.7 2-2 .7-2 2-2h2v8h-16v-2c0-1.3.7-2 2-2s2-.7 2-2v-2h-12v-2c0-1.3-.7-2-2-2h-2v12h8v4h8v8h4v-8h2c1.3 0 2 .7 2 2s.7 2 2 2h2v-8h8v-2c0-1.3.7-2 2-2s2-.7 2-2-.7-2-2-2-2-.7-2-2 .7-2 2-2h2v-12h2c1.3 0 2-.7 2-2s.7-2 2-2 2-.7 2-2-.7-2-2-2-2 .7-2 2-.7 2-2 2-2-.7-2-2-.7-2-2-2h-2v-8h-8v-4h8v-2c0-1.3.7-2 2-2h2v-8h4v16h8v-2c0-1.3-.7-2-2-2h-2v-8h2c1.3 0 2 .7 2 2s.7 2 2 2 2-.7 2-2-.7-2-2-2h-2v-8h8v-2c0-1.3.7-2 2-2s2-.7 2-2 .7-2 2-2 2 .7 2 2 .7 2 2 2 2-.7 2-2-.7-2-2-2h-2v-8h4V80h-2c-1.3 0-2-.7-2-2v-2h-8v-4h-8v2c0 1.3-.7 2-2 2h-2v16h-2c-1.3 0-2-.7-2-2s-.7-2-2-2-2 .7-2 2v2h-8v-2c0-1.3-.7-2-2-2s-2 .7-2 2-.7 2-2 2-2-.7-2-2-.7-2-2-2-2-.7-2-2v-2h8v-2c0-1.3-.7-2-2-2s-2-.7-2-2-.7-2-2-2-2-.7-2-2-.7-2-2-2-2-.7-2-2-.7-2-2-2h-2v-8h4v-8h-2c-1.3 0-2 .7-2 2s-.7 2-2 2-2-.7-2-2-.7-2-2-2-2 .7-2 2zm0 12c0 1.3-.7 2-2 2s-2 .7-2 2-.7 2-2 2-2-.7-2-2 .7-2 2-2 2-.7 2-2 .7-2 2-2 2 .7 2 2zm-12 8v2h12v-2c0-1.3.7-2 2-2h2v8h8v8h-2c-1.3 0-2 .7-2 2s-.7 2-2 2-2 .7-2 2v2h8v-4h8v4h-8v2c0 1.3.7 2 2 2h2v8h2c1.3 0 2-.7 2-2s.7-2 2-2h2V92h4v8h8v-4h12v-4h8v-4h8v8h-8v4h-20v4h12v8h-8v-2c0-1.3-.7-2-2-2h-2v8h-2c-1.3 0-2-.7-2-2v-2h-12v2c0 1.3-.7 2-2 2s-2 .7-2 2v2h12v4h-12v-4h-8v-8h2c1.3 0 2 .7 2 2s.7 2 2 2h2v-8h-2c-1.3 0-2-.7-2-2s-.7-2-2-2-2 .7-2 2v2h-8v2c0 1.3.7 2 2 2h2v12h-4v-12h-2c-1.3 0-2-.7-2-2s.7-2 2-2 2-.7 2-2v-2h8v-4h-12v-4h-8v-2c0-1.3-.7-2-2-2s-2-.7-2-2v-2h-8v-8h2c1.3 0 2-.7 2-2s.7-2 2-2 2-.7 2-2 .7-2 2-2 2 .7 2 2zm68 4c0 1.3.7 2 2 2s2 .7 2 2-.7 2-2 2-2-.7-2-2-.7-2-2-2h-2v8h-4V76h8v2zm-80 28c0 1.3-.7 2-2 2s-2 .7-2 2-.7 2-2 2-2-.7-2-2 .7-2 2-2 2-.7 2-2 .7-2 2-2 2 .7 2 2zm-24 4c0 1.3-.7 2-2 2s-2-.7-2-2 .7-2 2-2 2 .7 2 2zm-12 8c0 1.3-.7 2-2 2s-2-.7-2-2 .7-2 2-2 2 .7 2 2zm12 0v2h8v4h-8v4h8v2c0 1.3.7 2 2 2s2 .7 2 2-.7 2-2 2-2 .7-2 2-.7 2-2 2-2 .7-2 2v2h8v2c0 1.3-.7 2-2 2s-2 .7-2 2-.7 2-2 2-2-.7-2-2v-2h-8v-8h4v-12H64v-4h8v-8h2c1.3 0 2 .7 2 2zm16 0c0 1.3-.7 2-2 2s-2-.7-2-2 .7-2 2-2 2 .7 2 2zm8 8c0 1.3.7 2 2 2h2v8h-2c-1.3 0-2-.7-2-2v-2h-8v-2c0-1.3.7-2 2-2s2-.7 2-2 .7-2 2-2 2 .7 2 2zm32 4c0 1.3.7 2 2 2s2 .7 2 2-.7 2-2 2-2 .7-2 2 .7 2 2 2 2 .7 2 2 .7 2 2 2 2 .7 2 2-.7 2-2 2-2-.7-2-2-.7-2-2-2-2 .7-2 2v2h-8v-2c0-1.3-.7-2-2-2s-2-.7-2-2 .7-2 2-2 2 .7 2 2 .7 2 2 2h2v-16h2c1.3 0 2 .7 2 2zm12 0c0 1.3-.7 2-2 2s-2-.7-2-2 .7-2 2-2 2 .7 2 2zm-76 4c0 1.3-.7 2-2 2s-2-.7-2-2 .7-2 2-2 2 .7 2 2zm84 4v2h-12v-4h12v2zm-56 8c0 1.3-.7 2-2 2s-2-.7-2-2 .7-2 2-2 2 .7 2 2zm60 4v6h-12v-12h12v6zm-60 4c0 1.3-.7 2-2 2s-2-.7-2-2 .7-2 2-2 2 .7 2 2zm8 0v2h8v8h-2c-1.3 0-2-.7-2-2s-.7-2-2-2-2-.7-2-2-.7-2-2-2-2-.7-2-2 .7-2 2-2 2 .7 2 2zm-28 4v2h8v-2c0-1.3.7-2 2-2s2 .7 2 2-.7 2-2 2-2 .7-2 2v2h-8v-2c0-1.3-.7-2-2-2s-2-.7-2-2 .7-2 2-2 2 .7 2 2zm76 4c0 1.3-.7 2-2 2s-2-.7-2-2 .7-2 2-2 2 .7 2 2zm-84 8v6h-4v-12h4v6z"/><path d="M108 82v6h4V76h-4v6zm12 0c0 1.3-.7 2-2 2s-2 .7-2 2v2h8v2c0 1.3.7 2 2 2h2V80h-8v2zm32 24c0 1.3.7 2 2 2s2-.7 2-2-.7-2-2-2-2 .7-2 2zm-4 44c0 1.3.7 2 2 2s2-.7 2-2-.7-2-2-2-2 .7-2 2zm56-96c0 1.3.7 2 2 2s2 .7 2 2v2h-8v2c0 1.3-.7 2-2 2s-2-.7-2-2-.7-2-2-2-2 .7-2 2-.7 2-2 2-2 .7-2 2v2h8v2c0 1.3-.7 2-2 2s-2 .7-2 2 .7 2 2 2 2 .7 2 2v2h8v-4h-8v-2c0-1.3.7-2 2-2s2-.7 2-2 .7-2 2-2 2 .7 2 2 .7 2 2 2 2 .7 2 2 .7 2 2 2 2 .7 2 2-.7 2-2 2h-2v8h-2c-1.3 0-2 .7-2 2s-.7 2-2 2h-2v-8h-4v12h8v2c0 1.3.7 2 2 2s2-.7 2-2v-2h8v-2c0-1.3.7-2 2-2s2 .7 2 2 .7 2 2 2 2-.7 2-2-.7-2-2-2h-2v-8h2c1.3 0 2 .7 2 2s.7 2 2 2 2-.7 2-2-.7-2-2-2h-2v-8h2c1.3 0 2-.7 2-2v-2h-20V60h4v8h2c1.3 0 2-.7 2-2s.7-2 2-2 2 .7 2 2 .7 2 2 2 2-.7 2-2 .7-2 2-2 2-.7 2-2-.7-2-2-2-2 .7-2 2-.7 2-2 2-2-.7-2-2v-2h-8v-2c0-1.3-.7-2-2-2s-2-.7-2-2-.7-2-2-2-2 .7-2 2zm16 24c0 1.3-.7 2-2 2h-2v12h-4V80h2c1.3 0 2-.7 2-2s.7-2 2-2 2 .7 2 2zm0-24c0 1.3.7 2 2 2s2-.7 2-2-.7-2-2-2-2 .7-2 2zm-44 8c0 1.3-.7 2-2 2s-2 .7-2 2 .7 2 2 2 2-.7 2-2 .7-2 2-2 2 .7 2 2 .7 2 2 2 2-.7 2-2-.7-2-2-2-2-.7-2-2-.7-2-2-2-2 .7-2 2zM64 74v2h8v2c0 1.3.7 2 2 2s2-.7 2-2-.7-2-2-2-2-.7-2-2v-2h-8v2zm180 8c0 1.3-.7 2-2 2s-2 .7-2 2 .7 2 2 2 2-.7 2-2 .7-2 2-2 2-.7 2-2-.7-2-2-2-2 .7-2 2zm-12 4c0 1.3.7 2 2 2s2-.7 2-2-.7-2-2-2-2 .7-2 2zM60 90c0 1.3.7 2 2 2s2-.7 2-2-.7-2-2-2-2 .7-2 2zm136 12c0 1.3.7 2 2 2s2 .7 2 2v2h8v-4h-8v-2c0-1.3-.7-2-2-2s-2 .7-2 2zm-92 12v2h8v2c0 1.3.7 2 2 2s2-.7 2-2-.7-2-2-2-2-.7-2-2v-2h-8v2zm-60 8c0 1.3.7 2 2 2s2-.7 2-2-.7-2-2-2-2 .7-2 2zm8 12c0 1.3.7 2 2 2s2-.7 2-2-.7-2-2-2-2 .7-2 2zm132 8c0 1.3.7 2 2 2s2-.7 2-2-.7-2-2-2-2 .7-2 2zm36 18v4h8v2c0 1.3.7 2 2 2s2-.7 2-2-.7-2-2-2-2-.7-2-2-.7-2-2-2-2-.7-2-2-.7-2-2-2h-2v4zm-180 4v4h4v-8h-4v4zm132-2c0 1.3.7 2 2 2s2-.7 2-2-.7-2-2-2-2 .7-2 2zm28 10v4h2c1.3 0 2 .7 2 2v2h8v4h-8v2c0 1.3.7 2 2 2s2 .7 2 2v2h8v4h-8v4h8v-2c0-1.3.7-2 2-2s2 .7 2 2 .7 2 2 2h2v8h8v-8h-2c-1.3 0-2-.7-2-2s-.7-2-2-2h-2v-8h-2c-1.3 0-2-.7-2-2s-.7-2-2-2-2-.7-2-2-.7-2-2-2-2-.7-2-2-.7-2-2-2-2-.7-2-2-.7-2-2-2-2-.7-2-2-.7-2-2-2h-2v4zm16 14c0 1.3-.7 2-2 2s-2-.7-2-2 .7-2 2-2 2 .7 2 2zm-64-8v2h12v-4h-12v2zm20 0c0 1.3.7 2 2 2s2 .7 2 2-.7 2-2 2-2 .7-2 2v2h8v2c0 1.3.7 2 2 2h2v8h4v-8h-2c-1.3 0-2-.7-2-2s-.7-2-2-2h-2v-8h2c1.3 0 2-.7 2-2v-2h-12v2zm-20 8c0 1.3.7 2 2 2s2-.7 2-2-.7-2-2-2-2 .7-2 2zm-20 4c0 1.3.7 2 2 2s2-.7 2-2-.7-2-2-2-2 .7-2 2zm8 0v2h8v-4h-8v2zm20 0c0 1.3.7 2 2 2s2-.7 2-2-.7-2-2-2-2 .7-2 2zm-48 4c0 1.3.7 2 2 2s2-.7 2-2-.7-2-2-2-2 .7-2 2zm-60 4c0 1.3.7 2 2 2s2-.7 2-2-.7-2-2-2-2 .7-2 2zm8 2v4h4v-8h-4v4zm24 0v4h4v-8h-4v4zm36-2c0 1.3.7 2 2 2s2-.7 2-2-.7-2-2-2-2 .7-2 2z"/><path d="M200 202c0 1.3.7 2 2 2h2v8h-2c-1.3 0-2 .7-2 2s.7 2 2 2 2 .7 2 2 .7 2 2 2h2v8h8v2c0 1.3.7 2 2 2s2-.7 2-2-.7-2-2-2h-2v-8h2c1.3 0 2 .7 2 2s.7 2 2 2h2v-8h2c1.3 0 2-.7 2-2s-.7-2-2-2-2 .7-2 2v2h-8v-8h2c1.3 0 2-.7 2-2s-.7-2-2-2-2 .7-2 2-.7 2-2 2h-2v12h-4v-16h-2c-1.3 0-2-.7-2-2s-.7-2-2-2-2 .7-2 2zm-20 20v2h-8v4h12v-8h-2c-1.3 0-2 .7-2 2zm52 12c0 1.3.7 2 2 2s2-.7 2-2-.7-2-2-2-2 .7-2 2zM148 54c0 1.3.7 2 2 2s2-.7 2-2-.7-2-2-2-2 .7-2 2zm76 60c0 1.3.7 2 2 2s2 .7 2 2 .7 2 2 2 2-.7 2-2-.7-2-2-2-2-.7-2-2-.7-2-2-2-2 .7-2 2zM52 150c0 1.3.7 2 2 2s2-.7 2-2-.7-2-2-2-2 .7-2 2zm192 0c0 1.3.7 2 2 2s2-.7 2-2-.7-2-2-2-2 .7-2 2zM92 234c0 1.3.7 2 2 2s2-.7 2-2-.7-2-2-2-2 .7-2 2zm12 0c0 1.3.7 2 2 2s2 .7 2 2 .7 2 2 2 2-.7 2-2-.7-2-2-2-2-.7-2-2-.7-2-2-2-2 .7-2 2zm44 12c0 1.3.7 2 2 2s2-.7 2-2-.7-2-2-2-2 .7-2 2zm96 0c0 1.3.7 2 2 2s2-.7 2-2-.7-2-2-2-2 .7-2 2zM96 30c0 1.3.7 2 2 2s2-.7 2-2-.7-2-2-2-2 .7-2 2zm148 12v14h28V28h-28v14zm24 0v10h-20V32h20v10z"/><path d="M252 42v6h12V36h-12v6zM52 62c0 1.3.7 2 2 2s2-.7 2-2-.7-2-2-2-2 .7-2 2zm216 0c0 1.3.7 2 2 2s2-.7 2-2-.7-2-2-2-2 .7-2 2zm0 24c0 1.3.7 2 2 2s2-.7 2-2-.7-2-2-2-2 .7-2 2zm0 12c0 1.3.7 2 2 2s2-.7 2-2-.7-2-2-2-2 .7-2 2zm0 8c0 1.3.7 2 2 2s2-.7 2-2-.7-2-2-2-2 .7-2 2zm0 76c0 1.3.7 2 2 2s2-.7 2-2-.7-2-2-2-2 .7-2 2zm-240 4c0 1.3.7 2 2 2s2 .7 2 2-.7 2-2 2-2 .7-2 2 .7 2 2 2 2-.7 2-2 .7-2 2-2h2v-8h-8v2zm12 4c0 1.3.7 2 2 2s2-.7 2-2-.7-2-2-2-2 .7-2 2zm228 44c0 1.3.7 2 2 2s2-.7 2-2-.7-2-2-2-2 .7-2 2zM28 258v14h28v-28H28v14zm24 0v10H32v-20h20v10z"/><path d="M36 258v6h12v-12H36v6zm136 8c0 1.3.7 2 2 2s2 .7 2 2v2h8v-4h-8v-2c0-1.3-.7-2-2-2s-2 .7-2 2zm20 0c0 1.3-.7 2-2 2s-2 .7-2 2 .7 2 2 2 2-.7 2-2 .7-2 2-2 2-.7 2-2-.7-2-2-2-2 .7-2 2zm36 4c0 1.3.7 2 2 2s2-.7 2-2-.7-2-2-2-2 .7-2 2z"/></svg>