<svg xmlns="http://www.w3.org/2000/svg" xmlns:xlink="http://www.w3.org/1999/xlink" version="1.1" width="375pt" height="375pt" viewBox="0 0 375 375">
<defs>
<clipPath id="clip_0">
<path transform="matrix(.24,0,0,.24,0,0)" d="M0 0H1562.5V1593.75H0Z" fill-rule="evenodd"/>
</clipPath>
<clipPath id="clip_1">
<path transform="matrix(.24,0,0,.24,0,0)" d="M0 0H1562.5V1562.5H0Z" fill-rule="evenodd"/>
</clipPath>
<clipPath id="clip_2">
<path transform="matrix(.24,0,0,.24,0,0)" d="M0 0H1562.5V1562.5H0Z" fill-rule="evenodd"/>
</clipPath>
<clipPath id="clip_3">
<path transform="matrix(.24,0,0,.24,0,0)" d="M0 0H1562.5V1562.5H0Z" fill-rule="evenodd"/>
</clipPath>
<clipPath id="clip_4">
<path transform="matrix(.24,0,0,.24,0,52.559999)" d="M0 0H893V1344H0Z" fill-rule="evenodd"/>
</clipPath>
<path id="font_5_7" d="M.35821534 .17123413 .25021363 .30322267C.24020386 .29655967 .22819011 .28789268 .21417237 .27722169 .2001648 .26656089 .18799336 .25473023 .17765808 .24172974 .1673228 .22872925 .16215515 .2152303 .16215515 .20123291 .16215515 .18589275 .1663208 .17138672 .1746521 .15771485 .18299358 .14405315 .19400025 .13305664 .20767212 .12472534 .22135417 .11639404 .23587036 .11222839 .2512207 .11222839 .27121989 .11222839 .29071556 .118891399 .30970765 .1322174 .32870994 .14555359 .34487916 .15855916 .35821534 .17123413M.28515626 .57421877C.2738444 .57421877 .26319377 .5703837 .25320436 .5627136 .2432251 .5550435 .23823548 .5445455 .23823548 .5312195 .23823548 .5165507 .24272664 .5038808 .25170899 .49320985 .26069132 .48254905 .2691752 .47221885 .27716065 .46221925 .28848268 .46955363 .30062867 .4787191 .31359864 .48971559 .3265686 .5007121 .3330536 .51388046 .3330536 .5292206 .3330536 .5445506 .32839457 .55588278 .31907655 .56321719 .3097585 .5705516 .29845176 .57421877 .28515626 .57421877M.6640625-.00077819827H.49905396L.4390564 .07421875C.41438804 .05021159 .38656108 .030212403 .35557557 .014221191 .32459007-.0017700195 .2914327-.009765625 .25610353-.009765625 .21611531-.009765625 .17929077-.0009358724 .14562989 .016723633 .111968997 .03439331 .085138957 .05889384 .06513977 .09022522 .045150758 .1215566 .03515625 .15789287 .03515625 .19923401 .03515625 .2378896 .04415385 .27138267 .062149049 .29971314 .08015442 .3280436 .1044871 .35287477 .1351471 .37420655 .14114888 .37887574 .14715068 .38304139 .15315247 .3867035 .15915425 .39037577 .16515605 .3945465 .17115784 .3992157 .1551768 .4172109 .14186096 .4365438 .13121033 .45721437 .12055969 .47788493 .115234378 .5005493 .115234378 .5252075 .115234378 .5585429 .12273153 .58754476 .13772583 .61221316 .15272014 .63688156 .17303975 .65604659 .19868469 .66970828 .2243398 .6833801 .25349427 .69021609 .28614808 .69021609 .3174591 .69021609 .34594218 .6837158 .3715973 .67071536 .39726258 .65771487 .41775514 .6395467 .43307496 .61621096 .44839479 .5928752 .4560547 .5648753 .4560547 .5322113 .4560547 .4968821 .4457194 .46721397 .42504884 .4432068 .40438844 .4192098 .38105775 .3975474 .35505677 .3782196L.44805909 .26522828C.47205607 .29256187 .49505616 .32056175 .5170593 .3492279L.60406497 .2602234C.5927327 .24356079 .5805664 .22772725 .5675659 .21272278 .5545654 .1977183 .5413971 .18255107 .5280609 .16722107L.6640625-.00077819827Z"/>
<clipPath id="clip_6">
<path transform="matrix(.24,0,0,.24,0,0)" d="M0 0H1562.5V1593.75H0Z"/>
</clipPath>
<clipPath id="clip_7">
<path transform="matrix(.24,0,0,.24,0,0)" d="M0 0H1562.5V1562.5H0Z"/>
</clipPath>
<clipPath id="clip_8">
<path transform="matrix(.24,0,0,.24,0,0)" d="M0 0H1562.5V1562.5H0Z"/>
</clipPath>
<clipPath id="clip_9">
<path transform="matrix(.24,0,0,.24,0,0)" d="M41.184637 41.184637H1521.3154V1521.3154H41.184637Z"/>
</clipPath>
<clipPath id="clip_10">
<path transform="matrix(.24,0,0,.24,0,0)" d="M1477.4049 41.184637H41.184637V1521.3154H1521.3154V41.184637H1477.4049M1477.4049 1477.4049H85.58856V85.58856H1477.4049V1477.4049"/>
</clipPath>
<clipPath id="clip_11">
<path transform="matrix(.24,0,0,.24,0,0)" d="M0 0H1562.5V1562.5H0Z" fill-rule="evenodd"/>
</clipPath>
<path id="font_5_46" d="M.90800479 0H.7429962L.6629944 .46899415 .5299988 0H.3829956L.25 .46899415 .16999817 0H.005004883L.13699341 .6799927H.31500245L.45700074 .20300293 .5980072 .6799927H.776001L.90800479 0Z"/>
<path id="font_5_38" d="M.45361329 .13600159V0H.059570314V.67993167H.45361329V.5439453H.21000672V.4091797H.44335938V.2731781H.21000672V.13600159H.45361329Z"/>
<path id="font_5_36" d="M.55114749 .23127747H.7181549C.7028249 .18459575 .6788228 .14308675 .6461487 .10675049 .6134847 .07041422 .5748189 .04191081 .53015139 .021240235 .4854838 .00056966146 .43714906-.009765625 .3851471-.009765625 .3371531-.009765625 .2919871-.00076293948 .24964905 .017242432 .20732117 .035247804 .16998799 .06041972 .13764954 .09275818 .10532125 .12510681 .08015442 .16245015 .062149049 .20478821 .04415385 .24713643 .03515625 .29231773 .03515625 .34033204 .03515625 .38834635 .04415385 .43352256 .062149049 .4758606 .08015442 .5182088 .10532125 .5555522 .13764954 .5878906 .16998799 .62023928 .20732117 .64541628 .24964905 .66342166 .2919871 .681427 .3371531 .6904297 .3851471 .6904297 .43714906 .6904297 .48531596 .6800944 .5296478 .6594238 .5739797 .63875326 .6124776 .61058047 .6451416 .5749054 .67781576 .53923037 .7018178 .49805705 .7171478 .4513855H.55015566C.53615829 .48205567 .51382449 .50623068 .4831543 .5239105 .45248414 .5415904 .41981507 .5504303 .3851471 .5504303 .34848533 .5504303 .31515504 .5409241 .28515626 .5219116 .25515748 .50289919 .23132324 .47754923 .21365357 .44586183 .19598389 .41418458 .18714905 .37900798 .18714905 .34033204 .18714905 .3016459 .19598389 .26645915 .21365357 .23477173 .23132324 .20309448 .25515748 .17774964 .28515626 .15873719 .31515504 .13973491 .34848533 .13023377 .3851471 .13023377 .42048646 .13023377 .4534861 .13957215 .48414613 .1582489 .5148163 .17692566 .5371501 .20126851 .55114749 .23127747Z"/>
<path id="font_5_52" d="M.3236847 .10638428C.3396759 .10638428 .35699974 .10888163 .37565614 .11387634 .39431254 .118881229 .41046653 .1272176 .42411805 .1388855 .43777976 .15055339 .4446106 .16638692 .4446106 .18638611 .4446106 .20505269 .43744407 .22005208 .42311097 .23138428 .40877787 .24271648 .38994853 .25204978 .36662293 .25938417 .3433075 .26671855 .31782023 .2735494 .29016114 .2798767 .26250205 .2862142 .2346751 .29387919 .2066803 .3028717 .17869568 .3118744 .15304058 .3237101 .12971497 .3383789 .106399539 .3530477 .08757528 .3720449 .07324219 .39537049 .05891927 .41870628 .051757814 .44837443 .051757814 .484375 .051757814 .51971438 .059087118 .5502167 .07374573 .57588198 .088404338 .60154727 .107899989 .622879 .13223267 .6398773 .15656536 .6568756 .18388875 .6695404 .21420288 .6778717 .24452718 .6862132 .2750244 .6903839 .30569459 .6903839 .3523458 .6903839 .3959961 .6830495 .4366455 .66838076 .47730509 .653712 .51046249 .630544 .53611758 .59887698 .56178286 .5672099 .5752818 .52538046 .5766144 .47338868H.43162538C.4276174 .50871786 .4152883 .5332133 .39463807 .546875 .37398783 .5605469 .34500633 .5673828 .30769349 .5673828 .29370628 .5673828 .2788849 .5650482 .26322938 .560379 .24757385 .55570986 .23424785 .5482076 .22325135 .5378723 .21225484 .5275472 .20675659 .51371768 .20675659 .49638368 .20675659 .47904969 .21391805 .4653829 .22824097 .4553833 .24257405 .4453837 .2614034 .43704734 .284729 .43037416 .3080546 .42371116 .33370973 .41737876 .36169435 .41137696 .38968913 .40537516 .417511 .39804078 .4451599 .38937379 .472819 .38071696 .49831138 .36888633 .52163699 .35388185 .5449626 .33887736 .5637868 .31937663 .57810977 .29537965 .5924428 .27138267 .5996094 .24071758 .5996094 .2033844 .5996094 .16338603 .59159347 .12938436 .5755615 .101379398 .5595398 .073384609 .53800967 .050882978 .51097109 .03387451 .4839325 .01687622 .45355226 .0043792726 .41983033-.003616333 .38611857-.011622111 .3519033-.015625 .31718446-.015625 .26711528-.015625 .22021485-.0071258547 .17648316 .0098724369 .13276164 .0268809 .09738159 .053049726 .07034302 .088378909 .043304445 .12371826 .029785157 .16905213 .029785157 .2243805H.1817627C.18375652 .18371074 .19874573 .15387471 .22673035 .13487244 .25471498 .11588033 .28703309 .10638428 .3236847 .10638428Z"/>
<clipPath id="clip_12">
<path transform="matrix(.24,0,0,.24,0,0)" d="M0 0H1562.5V1593.75H0Z"/>
</clipPath>
<clipPath id="clip_13">
<path transform="matrix(.24,0,0,.24,0,0)" d="M0 0H1562.5V1562.5H0Z"/>
</clipPath>
<clipPath id="clip_14">
<path transform="matrix(.24,0,0,.24,0,0)" d="M0 0H1562.5V1562.5H0Z"/>
</clipPath>
<clipPath id="clip_15">
<path transform="matrix(.24,0,0,.24,0,0)" d="M-.00000000000008881784-.00000000000035527138H1562.5001V1562.5001H-.00000000000008881784Z"/>
</clipPath>
<clipPath id="clip_16">
<path transform="matrix(.24,0,0,.24,0,0)" d="M1515.9849-.00000000000035527138H-.00000000000008881784V1562.5001H1562.5001V-.00000000000035527138H1515.9849M1515.9849 1515.9849H47.037828V47.037828H1515.9849V1515.9849"/>
</clipPath>
</defs>
<g>
<g clip-path="url(#clip_0)">
<path transform="matrix(.75,0,0,.75,0,0)" d="M0 0H500V510H0Z" fill="#ffffff"/>
</g>
<g clip-path="url(#clip_1)">
<path transform="matrix(.75,0,0,.75,0,0)" d="M0 0H500V500H0Z" fill="#ffffff"/>
</g>
<g clip-path="url(#clip_2)">
<path transform="matrix(.75,0,0,.75,0,0)" d="M0 0H500V500H0Z"/>
</g>
<g clip-path="url(#clip_3)">
<g opacity=".4667">
<g clip-path="url(#clip_4)">
<use data-text="&amp;" xlink:href="#font_5_7" transform="matrix(318.44096,0,0,-318.44096,-.26148225,354.9798)" fill="#44828f"/>
</g>
</g>
</g>
<g clip-path="url(#clip_6)">
<g clip-path="url(#clip_7)">
<g clip-path="url(#clip_8)">
<g clip-path="url(#clip_9)">
<g clip-path="url(#clip_10)">
<path transform="matrix(.5920523,0,0,.5920523,9.884313,9.884313)" d="M0 0H600V600H0Z" fill="#ffffff"/>
</g>
</g>
</g>
</g>
</g>
<g clip-path="url(#clip_11)">
<use data-text="M" xlink:href="#font_5_46" transform="matrix(140.00023,0,0,-140.00023,87.617038,166.26908)" fill="#44828f"/>
<use data-text="E" xlink:href="#font_5_38" transform="matrix(140.00023,0,0,-140.00023,215.41722,166.26908)" fill="#ffffff"/>
<use data-text="C" xlink:href="#font_5_36" transform="matrix(140.00023,0,0,-140.00023,91.40432,306.0393)" fill="#ffffff"/>
<use data-text="S" xlink:href="#font_5_52" transform="matrix(140.00023,0,0,-140.00023,195.41783,306.0393)" fill="#ffffff"/>
</g>
<g clip-path="url(#clip_12)">
<g clip-path="url(#clip_13)">
<g clip-path="url(#clip_14)">
<g clip-path="url(#clip_15)">
<g clip-path="url(#clip_16)">
<path transform="matrix(.62709036,0,0,.62709036,-.000000000000021316282,-.00000000000008526513)" d="M0 0H598V598H0Z"/>
</g>
</g>
</g>
</g>
</g>
</g>
</svg>
