<?xml version="1.0" standalone="no"?>
<!DOCTYPE svg PUBLIC "-//W3C//DTD SVG 20010904//EN"
 "http://www.w3.org/TR/2001/REC-SVG-20010904/DTD/svg10.dtd">
<svg version="1.0" xmlns="http://www.w3.org/2000/svg"
 width="700.000000pt" height="700.000000pt" viewBox="0 0 700.000000 700.000000"
 preserveAspectRatio="xMidYMid meet">
<metadata>
Created by potrace 1.14, written by Peter Selinger 2001-2017
</metadata>
<g transform="translate(0.000000,700.000000) scale(0.100000,-0.100000)"
fill="#000000" stroke="none">
<path d="M0 3500 l0 -3500 3500 0 3500 0 0 3500 0 3500 -3500 0 -3500 0 0
-3500z m6790 0 l0 -3290 -3290 0 -3290 0 0 3290 0 3290 3290 0 3290 0 0 -3290z"/>
<path d="M385 6610 c-4 -6 -5 -1409 -3 -3118 l3 -3107 3118 -2 3117 -3 0 3120
0 3120 -3114 0 c-2161 0 -3117 -3 -3121 -10z m2098 -1017 c13 -43 95 -320 183
-615 87 -296 161 -538 164 -538 3 0 86 276 185 613 l181 612 234 3 235 2 159
-822 c88 -453 165 -851 172 -886 l12 -62 -216 2 -216 3 -102 599 c-57 329
-104 600 -106 602 -2 2 -80 -268 -174 -599 l-171 -602 -196 -5 -196 -5 -10 44
c-16 74 -326 1161 -331 1161 -5 0 -34 -169 -169 -980 l-37 -225 -217 -3 c-206
-2 -217 -1 -217 16 0 11 24 142 54 293 107 538 286 1454 286 1462 0 4 106 7
235 7 l234 0 24 -77z m2727 -98 l0 -175 -320 0 -320 0 0 -175 0 -175 305 0
305 0 0 -180 0 -180 -305 0 -305 0 0 -180 0 -180 320 0 320 0 0 -175 0 -175
-515 0 -515 0 0 885 0 885 515 0 515 0 0 -175z m-2355 -2415 c313 -48 590
-269 705 -559 l20 -51 -219 0 -219 0 -25 43 c-83 141 -289 232 -467 207 -128
-18 -210 -61 -304 -160 -88 -92 -146 -240 -146 -376 0 -158 54 -290 164 -400
161 -160 370 -196 569 -96 79 39 174 127 196 180 l13 32 207 0 c113 0 212 -4
219 -9 22 -14 -40 -148 -119 -256 -50 -69 -153 -169 -219 -212 -30 -20 -67
-44 -81 -54 -37 -25 -133 -64 -209 -85 -50 -14 -103 -18 -225 -19 -138 0 -171
3 -239 23 -520 151 -803 680 -632 1185 46 133 113 242 216 347 128 130 291
221 455 254 80 17 253 20 340 6z m1845 -20 c125 -31 223 -83 301 -160 95 -93
149 -215 149 -334 l0 -46 -187 2 -187 3 -11 50 c-15 66 -27 87 -75 128 -126
108 -424 78 -484 -48 -21 -44 -20 -103 3 -140 26 -44 124 -89 276 -125 359
-87 486 -136 581 -223 106 -97 144 -189 144 -352 0 -222 -96 -380 -290 -473
-143 -69 -234 -87 -445 -86 -208 0 -281 15 -424 85 -191 94 -321 287 -321 476
l0 53 195 0 195 0 5 -27 c22 -105 47 -149 113 -200 104 -79 310 -97 440 -39
101 47 144 113 128 201 -17 89 -109 139 -386 210 -308 79 -429 133 -524 234
-121 130 -148 343 -66 519 54 116 189 227 335 277 149 50 370 57 535 15z"/>
</g>
</svg>
